<svg width="60" height="60" viewBox="0 0 60 60" fill="none" xmlns="http://www.w3.org/2000/svg">
<path d="M37.5 47.3438H22.5C21.7237 47.3438 21.0938 47.9738 21.0938 48.75V52.5C21.0938 52.8882 21.2513 53.2407 21.5063 53.4957L25.2563 57.2457C25.5094 57.4988 25.86 57.6563 26.2481 57.6563C26.25 57.6563 26.25 57.6563 26.2519 57.6563H33.7519C33.7519 57.6563 33.7538 57.6563 33.7556 57.6563C34.1438 57.6563 34.4944 57.4988 34.7494 57.2457L38.4994 53.4957C38.7525 53.2407 38.91 52.89 38.91 52.5019C38.91 52.5 38.91 52.5 38.91 52.4982V48.7482C38.91 47.9719 38.28 47.3419 37.5038 47.3419L37.5 47.3438ZM36.0938 51.9169L33.1669 54.8438H26.8313L23.9044 51.9169V50.1563H36.0919L36.0938 51.9169ZM46.7831 12.4163C43.3556 6.58316 37.2525 2.64191 30.2044 2.27629L30.1538 2.27441H30.0281C22.98 2.58379 16.8863 6.40316 13.4212 12.0188L13.3706 12.1069C11.2706 15.1275 10.0163 18.8738 10.0163 22.9125C10.0163 22.9238 10.0163 22.9332 10.0163 22.9444V22.9425C10.3444 27.0807 11.685 30.8494 13.7888 34.0744L13.7325 33.9825C14.3306 35.0119 14.9644 36.0263 15.6 37.0407C16.8862 38.9382 18.1144 41.1188 19.1625 43.4007L19.2806 43.6875C19.5 44.1994 19.9988 44.5519 20.5781 44.5519C20.58 44.5519 20.5838 44.5519 20.5856 44.5519C20.7788 44.5519 20.9625 44.5107 21.1294 44.4394L21.12 44.4432C21.6319 44.2257 21.9844 43.7269 21.9844 43.1457C21.9844 42.9507 21.945 42.765 21.8719 42.5944L21.8756 42.6038C20.6419 39.8775 19.3444 37.5638 17.8725 35.3757L17.9831 35.55C17.3644 34.5619 16.7475 33.5738 16.1625 32.5688C14.3212 29.8238 13.1175 26.5088 12.8306 22.935L12.8269 22.8638C12.855 19.4119 13.935 16.2188 15.7631 13.5825L15.7275 13.6369C18.7331 8.70754 23.9606 5.39254 29.9831 5.08691L30.0262 5.08504H30.1312C36.2344 5.44316 41.4656 8.85941 44.3475 13.8132L44.3925 13.8975C46.1006 16.4682 47.1169 19.6257 47.1169 23.0194C47.1169 23.1319 47.115 23.2444 47.1131 23.3569V23.34C46.695 26.9475 45.4575 30.2007 43.5919 33L43.6425 32.9194C43.1006 33.8382 42.5325 34.7475 41.9644 35.6513C40.6444 37.6163 39.3563 39.8832 38.2406 42.2475L38.1038 42.5682C38.0306 42.7313 37.9894 42.9244 37.9894 43.125C37.9894 43.9013 38.6194 44.5313 39.3956 44.5313C39.9675 44.5313 40.4606 44.19 40.68 43.6988L40.6837 43.6894C41.8706 41.1507 43.0931 39.0057 44.4619 36.9675L44.3494 37.1457C44.9287 36.2194 45.51 35.2894 46.0669 34.3482C48.1106 31.2675 49.4887 27.5757 49.9106 23.5988L49.92 23.4919C49.9256 23.3232 49.9294 23.1244 49.9294 22.9238C49.9294 19.0107 48.7538 15.3732 46.7381 12.3432L46.7813 12.4125L46.7831 12.4163ZM27.5325 11.0494C27.3038 10.5582 26.8144 10.2244 26.2481 10.2244C26.04 10.2244 25.8413 10.2694 25.6631 10.35L25.6725 10.3463C21.33 12.8625 18.2456 17.1357 17.3775 22.17L17.3625 22.2713C17.3513 22.3407 17.3438 22.4194 17.3438 22.5C17.3438 23.1957 17.8481 23.7713 18.51 23.8875L18.5175 23.8894C18.5869 23.9007 18.6656 23.9082 18.7481 23.9082C18.75 23.9082 18.7519 23.9082 18.7519 23.9082C19.4456 23.9082 20.0213 23.4057 20.1356 22.7438L20.1375 22.7363C20.8819 18.5513 23.3512 15.0544 26.7675 12.9488L26.8294 12.9132C27.3206 12.6882 27.6581 12.1988 27.6581 11.6325C27.6581 11.4225 27.6112 11.2238 27.5306 11.0457L27.5344 11.055L27.5325 11.0494ZM3.12187 5.00816L10.6219 8.75816C10.8056 8.85191 11.0212 8.90629 11.25 8.90629C12.0263 8.90629 12.6562 8.27629 12.6562 7.50004C12.6562 6.95254 12.3431 6.47816 11.8856 6.24566L11.8781 6.24191L4.37813 2.49191C4.19438 2.39816 3.97875 2.34379 3.75 2.34379C2.97375 2.34379 2.34375 2.97379 2.34375 3.75004C2.34375 4.29754 2.65688 4.77191 3.11438 5.00441L3.12187 5.00816ZM48.75 8.90629C48.9788 8.90629 49.1981 8.85191 49.3894 8.75441L49.3819 8.75816L56.8819 5.00816C57.3469 4.77191 57.6581 4.29754 57.6581 3.75004C57.6581 2.97379 57.0281 2.34379 56.2519 2.34379C56.0231 2.34379 55.8056 2.39816 55.6144 2.49566L55.6219 2.49191L48.1219 6.24191C47.6588 6.47816 47.3475 6.95254 47.3475 7.49816C47.3475 8.27441 47.9756 8.90441 48.7519 8.90441L48.75 8.90629ZM56.88 39.9938L49.38 36.2438C49.1981 36.1519 48.9825 36.0975 48.7556 36.0975C47.9794 36.0975 47.3512 36.7275 47.3512 37.5019C47.3512 38.0457 47.6606 38.5182 48.1125 38.7507L48.12 38.7544L55.62 42.5044C55.8019 42.5982 56.0175 42.6544 56.2462 42.6544C56.2481 42.6544 56.2481 42.6544 56.25 42.6544C57.0263 42.6544 57.6562 42.0244 57.6562 41.2482C57.6562 40.7025 57.345 40.2282 56.8894 39.9957L56.8819 39.9919L56.88 39.9938ZM10.8225 36.225L3.48562 39.6563C3.00187 39.885 2.67375 40.3707 2.67375 40.9313C2.67375 41.7075 3.30375 42.3375 4.08 42.3375C4.29563 42.3375 4.5 42.2888 4.68375 42.2025L4.67438 42.2063L12.0113 38.775C12.4988 38.5463 12.8288 38.0607 12.8288 37.4982C12.8288 36.7219 12.1988 36.0919 11.4225 36.0919C11.2031 36.0919 10.9969 36.1425 10.8131 36.2307L10.8225 36.225ZM3.75 23.9063H5.625C6.40125 23.9063 7.03125 23.2763 7.03125 22.5C7.03125 21.7238 6.40125 21.0938 5.625 21.0938H3.75C2.97375 21.0938 2.34375 21.7238 2.34375 22.5C2.34375 23.2763 2.97375 23.9063 3.75 23.9063ZM56.25 21.0938H54.375C53.5987 21.0938 52.9688 21.7238 52.9688 22.5C52.9688 23.2763 53.5987 23.9063 54.375 23.9063H56.25C57.0263 23.9063 57.6562 23.2763 57.6562 22.5C57.6562 21.7238 57.0263 21.0938 56.25 21.0938Z" fill="#FCB814"/>
</svg>
