<svg width="14" height="14" viewBox="0 0 14 14" fill="none" xmlns="http://www.w3.org/2000/svg">
<path d="M6.78125 0.875C3.5 0.875 0.875 3.52734 0.875 6.78125C0.875 10.0625 3.5 12.6875 6.78125 12.6875C10.0352 12.6875 12.6875 10.0625 12.6875 6.78125C12.6875 3.52734 10.0078 0.875 6.78125 0.875ZM6.78125 0C10.5 0 13.5625 3.0625 13.5625 6.78125C13.5625 10.5273 10.5 13.5625 6.78125 13.5625C3.03516 13.5625 0 10.5273 0 6.78125C0 3.0625 3.03516 0 6.78125 0ZM5.79688 9.40625H6.125V6.125H5.79688C5.60547 6.125 5.46875 5.98828 5.46875 5.79688V5.57812C5.46875 5.41406 5.60547 5.25 5.79688 5.25H7.10938C7.27344 5.25 7.4375 5.41406 7.4375 5.57812V9.40625H7.76562C7.92969 9.40625 8.09375 9.57031 8.09375 9.73438V9.95312C8.09375 10.1445 7.92969 10.2812 7.76562 10.2812H5.79688C5.60547 10.2812 5.46875 10.1445 5.46875 9.95312V9.73438C5.46875 9.57031 5.60547 9.40625 5.79688 9.40625ZM6.78125 2.84375C7.24609 2.84375 7.65625 3.25391 7.65625 3.71875C7.65625 4.21094 7.24609 4.59375 6.78125 4.59375C6.28906 4.59375 5.90625 4.21094 5.90625 3.71875C5.90625 3.25391 6.28906 2.84375 6.78125 2.84375Z" fill="#FA9A82"/>
</svg>
