<svg width="45" height="39" viewBox="0 0 45 39" fill="none" xmlns="http://www.w3.org/2000/svg">
<mask id="mask0_348_4619" style="mask-type:luminance" maskUnits="userSpaceOnUse" x="0" y="0" width="45" height="39">
<path d="M44.1626 0.0455322L-8.51731e-05 0.0455361L-8.17747e-05 38.9177L44.1626 38.9177L44.1626 0.0455322Z" fill="white"/>
</mask>
<g mask="url(#mask0_348_4619)">
<path d="M1.20914 0.195152C6.08673 0.0498613 10.9392 0.0859101 15.6879 1.49074C24.3081 4.04042 30.7828 9.1922 34.994 17.1471C37.0597 21.0503 38.553 25.1697 39.6902 29.4257C39.959 30.4351 40.243 31.4401 40.5194 32.4462C41.0328 31.6608 40.9192 30.8601 40.9399 30.0779C41.0546 25.7443 41.6227 21.4708 42.5906 17.2487C42.7031 16.756 42.8167 16.0842 43.4809 16.2546C44.203 16.4403 43.8304 17.0575 43.7125 17.5305C43.3804 18.8676 43.0374 20.2036 42.7326 21.5484C41.5724 26.6762 41.8532 31.8705 42.04 37.0595C42.0629 37.6974 42.2781 38.4086 41.4435 38.7341C40.61 39.0597 39.971 38.7429 39.4117 38.1224C36.8543 35.2832 34.0709 32.6822 30.9422 30.4843C29.261 29.3034 27.582 28.058 25.4933 27.62C25.1132 27.5402 24.5779 27.5501 24.6784 26.9809C24.7712 26.4511 25.289 26.5582 25.667 26.6041C26.0242 26.6478 26.3825 26.7504 26.7168 26.8848C28.3795 27.5501 29.8619 28.5311 31.3016 29.5721C34.249 31.7045 36.9472 34.1417 39.7252 36.4783C39.9644 36.6793 40.172 36.9317 40.5489 36.7765C40.4505 36.392 40.3446 36.0501 40.2758 35.7005C39.2139 30.3466 37.1111 24.6497 34.8978 19.629C31.1596 11.1476 25.3316 6.13893 16.4122 3.24405C11.3215 1.59234 6.65151 1.03303 1.40468 1.60982C0.843187 1.67208 0.293706 1.63603 0.194298 1.01664C0.0817798 0.318593 0.677141 0.210445 1.20914 0.195152Z" fill="white"/>
</g>
</svg>
