<svg width="45" height="39" viewBox="0 0 45 39" fill="none" xmlns="http://www.w3.org/2000/svg">
<mask id="mask0_348_4618" style="mask-type:luminance" maskUnits="userSpaceOnUse" x="0" y="0" width="45" height="39">
<path d="M45 0.0455322L0.837317 0.0455284L0.837314 38.9177L45 38.9177L45 0.0455322Z" fill="#0E0E0E"/>
</mask>
<g mask="url(#mask0_348_4618)">
<path d="M2.04654 0.195144C6.92414 0.0498547 11.7766 0.0859044 16.5253 1.49074C25.1455 4.04041 31.6202 9.1922 35.8314 17.1471C37.8971 21.0503 39.3904 25.1697 40.5276 29.4257C40.7964 30.4351 41.0804 31.4401 41.3568 32.4462C41.8702 31.6608 41.7566 30.8601 41.7773 30.0779C41.892 25.7443 42.4601 21.4708 43.428 17.2487C43.5405 16.756 43.6541 16.0842 44.3183 16.2546C45.0404 16.4403 44.6678 17.0575 44.5499 17.5305C44.2178 18.8676 43.8748 20.2036 43.57 21.5484C42.4098 26.6762 42.6906 31.8705 42.8774 37.0595C42.9003 37.6974 43.1155 38.4086 42.2809 38.7341C41.4474 39.0597 40.8084 38.7429 40.2491 38.1224C37.6917 35.2832 34.9083 32.6822 31.7796 30.4843C30.0984 29.3034 28.4194 28.058 26.3307 27.62C25.9506 27.5402 25.4153 27.5501 25.5158 26.9809C25.6086 26.4511 26.1264 26.5582 26.5044 26.6041C26.8616 26.6477 27.2199 26.7504 27.5542 26.8848C29.2169 27.5501 30.6993 28.5311 32.139 29.5721C35.0864 31.7045 37.7846 34.1417 40.5626 36.4783C40.8018 36.6793 41.0094 36.9317 41.3863 36.7765C41.2879 36.392 41.182 36.0501 41.1132 35.7005C40.0513 30.3466 37.9485 24.6497 35.7352 19.629C31.997 11.1476 26.169 6.13893 17.2496 3.24405C12.1589 1.59233 7.48891 1.03302 2.24209 1.60981C1.68059 1.67208 1.13111 1.63603 1.0317 1.01663C0.919182 0.318586 1.51454 0.210438 2.04654 0.195144Z" fill="#0E0E0E"/>
</g>
</svg>
