<svg width="25" height="26" viewBox="0 0 25 26" fill="none" xmlns="http://www.w3.org/2000/svg">
<path d="M22.3958 7.16101L20.7772 8.77964L16.688 4.69049L18.3066 3.07183C19.5838 1.79463 21.5302 1.68086 22.6556 2.80634C23.2212 3.37189 23.4753 4.14444 23.4247 4.92965C23.381 5.72178 23.0315 6.52533 22.3958 7.16101Z" fill="#FF3B30"/>
<path d="M18.6515 4.48796C18.5982 4.48796 18.544 4.47607 18.4929 4.45113C18.3131 4.36347 18.2383 4.1465 18.3261 3.96654C18.8438 2.90512 20.0464 2.42281 21.0059 2.89068C21.1856 2.97846 21.2605 3.19538 21.1727 3.37529C21.0848 3.55504 20.8682 3.62967 20.688 3.5422C20.0878 3.24946 19.32 3.58228 18.9776 4.28437C18.9148 4.41309 18.7858 4.48796 18.6515 4.48796Z" fill="white"/>
<path d="M3.62847 17.7097L17.0891 4.3042L21.1892 8.40425L7.5537 21.9661M4.06303 22.8506L1.69092 23.7765L2.52087 21.3085L4.06303 22.8506Z" fill="#152B3C"/>
<path d="M5.99478 17.7243L4.47733 17.7243L3.6286 17.7097L2.521 21.3085L4.06308 22.8506L7.55383 21.9661L7.67265 20.869L7.67325 19.4039L5.96072 19.64L5.99478 17.7243Z" fill="#FCB814"/>
<path d="M21.059 2.05371C21.2375 2.16074 21.4056 2.28827 21.5579 2.44052C22.1234 3.00605 22.3775 3.77862 22.3269 4.56378C22.2832 5.35596 21.9337 6.15944 21.298 6.79516L20.4111 7.68204L21.1429 8.4138L22.3956 7.16106C23.0313 6.52533 23.3808 5.72185 23.4246 4.92967C23.4752 4.14453 23.2211 3.37194 22.6555 2.80641C22.2183 2.36911 21.6567 2.12131 21.059 2.05371Z" fill="black"/>
<path d="M16.8173 4.52097L19.0366 7.36791C19.4319 7.87499 19.3882 8.59697 18.9346 9.05264L7.67534 20.3641L7.55371 21.9661L21.1892 8.40425L17.0891 4.3042L16.8173 4.52097Z" fill="black"/>
<path d="M6.6837 21.4968L3.54346 22.3312L4.06296 22.8507L7.55371 21.9663L7.67253 20.8692L7.67313 19.4041L7.30338 19.455L6.6837 21.4968Z" fill="black"/>
<path d="M7.86937 15.6058C7.82177 15.6059 7.77463 15.5966 7.73065 15.5783C7.68668 15.5601 7.64673 15.5334 7.61312 15.4997C7.47157 15.3582 7.47157 15.1287 7.61312 14.9872L15.7234 6.87692C15.865 6.73536 16.0944 6.73536 16.2359 6.87692C16.3775 7.0184 16.3775 7.2479 16.2359 7.38938L8.12559 15.4997C8.09198 15.5334 8.05204 15.5601 8.00807 15.5783C7.9641 15.5966 7.91696 15.6059 7.86937 15.6058Z" fill="white"/>
</svg>
